#!OML:ASF E:\emotionWalksFemale\Project 1\Capture day 1\Session 1\Female1.ASF
:FULLY-SPECIFIED
:DEGREES
442
root 10.8756 15.4553 -18.9937 -0.432256 4.40246 3.45659
lowerback 8.76869 -0.141308 -4.80309
upperback -3.19588 -0.814505 -0.549869
thorax -8.26982 -0.159865 2.24781
lowerneck -8.20543 -3.36067 -6.29667
upperneck 15.7835 -4.55087 5.32563
head 6.40613 -2.16542 2.37166
rclavicle -1.51123e-014 -4.14963e-015
rhumerus -47.4533 8.00235 -90.4293
rradius 32.4682
rwrist 15.9038
rhand -0.160585 -52.7645
rfingers 7.12502
rthumb 25.4366 -81.0872
lclavicle -1.51123e-014 -4.14963e-015
lhumerus -29.5094 -5.21076 84.6022
lradius 44.8424
lwrist -4.27983
lhand -9.30684 -33.3498
lfingers 7.12502
lthumb 16.6511 -4.04398
rfemur -27.3647 10.0002 17.355
rtibia 27.478
rfoot -18.6031 -32.9309
rtoes -0.766762
lfemur 11.3305 -16.4885 -34.0416
ltibia 11.2089
lfoot -18.9219 17.9074
ltoes -24.3819
443
root 10.8631 15.4418 -18.8667 -0.40571 4.45222 3.50157
lowerback 8.62187 -0.128938 -4.88956
upperback -3.09519 -0.795061 -0.538347
thorax -8.07612 -0.152009 2.30357
lowerneck -8.13427 -3.31508 -6.39996
upperneck 15.4643 -4.50042 5.54107
head 6.29624 -2.13194 2.46238
rclavicle -1.62755e-015 -8.44835e-015
rhumerus -47.2852 7.66572 -90.2555
rradius 32.4113
rwrist 16.1261
rhand 0.15087 -52.9568
rfingers 7.12502
rthumb 25.7349 -81.2367
lclavicle -1.62755e-015 -8.44835e-015
lhumerus -29.285 -5.23074 84.8657
lradius 45.167
lwrist -4.04711
lhand -9.77524 -33.9661
lfingers 7.12502
lthumb 16.2001 -4.62304
rfemur -27.2995 12.3671 16.43
rtibia 25.8643
rfoot -20.2578 -34.3386
rtoes 2.42481
lfemur 12.1239 -16.1266 -34.0628
ltibia 10.6288
lfoot -19.0021 17.4286
ltoes -23.652
444
root 10.8511 15.4271 -18.7414 -0.235447 4.52729 3.62849
lowerback 8.47117 -0.0934671 -4.97641
upperback -3.16678 -0.757817 -0.627055
thorax -8.06954 -0.130991 2.25117
lowerneck -7.93613 -3.40301 -6.20267
upperneck 15.291 -4.63138 5.40527
head 6.20762 -2.19772 2.37768
rclavicle 6.37975e-015 -9.19379e-016
rhumerus -47.3817 7.17207 -90.1515
rradius 32.503
rwrist 16.1338
rhand 0.626474 -53.5694
rfingers 7.12502
rthumb 26.1903 -81.7825
lclavicle 6.37975e-015 -9.19379e-016
lhumerus -29.4713 -5.44026 85.1115
lradius 45.7195
lwrist -3.62457
lhand -10.0907 -34.3226
lfingers 7.12502
lthumb 15.8963 -4.95501
rfemur -27.4981 14.996 15.2341
rtibia 24.4718
rfoot -22.5338 -36.03
rtoes 6.85263
lfemur 12.7237 -15.7926 -34.1088
ltibia 10.0962
lfoot -18.6782 16.9944
ltoes -24.636
445
root 10.8374 15.4137 -18.6146 -0.0968781 4.66014 3.75697
lowerback 8.40033 -0.117513 -5.07844
upperback -3.28011 -0.805558 -0.678928
thorax -8.14755 -0.146643 2.26019
lowerneck -7.92517 -3.44392 -6.10117
upperneck 15.4704 -4.67785 5.21194
head 6.25866 -2.22884 2.29565
rclavicle 1.34226e-014 -4.89507e-015
rhumerus -47.4539 6.87265 -90.0525
rradius 32.4931
rwrist 16.1039
rhand -0.0552903 -53.2778
rfingers 7.12502
rthumb 25.5374 -81.5862
lclavicle 1.34226e-014 -4.89507e-015
lhumerus -29.7745 -5.51235 85.3544
lradius 46.2422
lwrist -3.04088
lhand -10.1371 -34.3734
lfingers 7.12502
lthumb 15.8516 -5.00233
rfemur -27.6746 17.675 13.9853
rtibia 23.2413
rfoot -24.7603 -37.8705
rtoes 10.7151
lfemur 13.2476 -15.4868 -34.1554
ltibia 9.76063
lfoot -18.4714 16.6118
ltoes -24.9299
446
root 10.8217 15.3984 -18.4877 -0.0410914 4.86803 3.75676
lowerback 8.40554 -0.188007 -5.13734
upperback -3.28831 -0.902083 -0.608994
thorax -8.15048 -0.18828 2.38214
lowerneck -8.1124 -3.42027 -6.24672
upperneck 15.5596 -4.62085 5.23409
head 6.3202 -2.20487 2.32892
rclavicle -1.24271e-014 -5.76476e-015
rhumerus -47.3136 6.815 -89.8795
rradius 32.3632
rwrist 16.0568
rhand -1.04133 -52.5598
rfingers 7.12502
rthumb 24.5926 -81.0001
lclavicle -1.24271e-014 -5.76476e-015
lhumerus -29.7973 -5.3088 85.6469
lradius 46.5119
lwrist -2.67908
lhand -10.2113 -34.6536
lfingers 7.12502
lthumb 15.7801 -5.27684
rfemur -27.8015 20.4282 12.8185
rtibia 22.1139
rfoot -26.3321 -39.8655
rtoes 12.5561
lfemur 13.6761 -15.2431 -34.0682
ltibia 9.69849
lfoot -18.1496 16.4225
ltoes -25.6966
447
root 10.8077 15.3866 -18.3607 0.12369 5.08693 3.73038
lowerback 8.29518 -0.251927 -5.15152
upperback -3.30602 -0.976507 -0.526157
thorax -8.09785 -0.222471 2.48772
lowerneck -8.1737 -3.42137 -6.41483
upperneck 15.4894 -4.59811 5.27491
head 6.31232 -2.19948 2.37061
rclavicle 6.94193e-015 -6.16232e-015
rhumerus -47.1202 6.67462 -89.5816
rradius 32.2648
rwrist 16.3161
rhand -0.868395 -52.5434
rfingers 7.12502
rthumb 24.7583 -80.9611
lclavicle 6.94193e-015 -6.16232e-015
lhumerus -29.9203 -5.01313 85.999
lradius 46.8903
lwrist -2.45271
lhand -9.71168 -34.5209
lfingers 7.12502
lthumb 16.2613 -5.18284
rfemur -28.1246 23.2091 11.5237
rtibia 21.0827
rfoot -27.7317 -41.753
rtoes 13.8172
lfemur 13.883 -15.0378 -33.9228
ltibia 9.86481
lfoot -17.7474 16.2661
ltoes -27.3888
448
root 10.793 15.3755 -18.2304 0.326953 5.24807 3.61619
lowerback 8.06779 -0.3201 -5.04649
upperback -3.3985 -1.04009 -0.466931
thorax -8.06006 -0.256725 2.49804
lowerneck -7.77542 -3.3764 -6.49339
upperneck 15.2357 -4.55087 5.34611
head 6.16322 -2.1821 2.41552
rclavicle 9.03228e-015 7.00716e-015
rhumerus -47.0545 6.412 -89.3331
rradius 32.1039
rwrist 16.8672
rhand -0.217257 -52.8113
rfingers 7.12502
rthumb 25.3823 -81.1418
lclavicle 9.03228e-015 7.00716e-015
lhumerus -30.2831 -4.87935 86.2755
lradius 47.3222
lwrist -2.19029
lhand -9.39967 -34.1022
lfingers 7.12502
lthumb 16.5617 -4.78898
rfemur -28.5012 25.8895 10.3339
rtibia 20.1997
rfoot -29.5658 -43.2671
rtoes 15.6545
lfemur 14.0762 -14.788 -33.6585
ltibia 10.0947
lfoot -17.8271 15.7742
ltoes -26.9645
449
root 10.7765 15.3604 -18.0954 0.420113 5.36215 3.51878
lowerback 7.99581 -0.337481 -4.91644
upperback -3.4333 -1.04439 -0.454584
thorax -8.05632 -0.26482 2.4378
lowerneck -7.7536 -3.42671 -6.48515
upperneck 15.1045 -4.61401 5.32644
head 6.12147 -2.21408 2.40272
rclavicle 2.21987e-014 9.69075e-015
rhumerus -46.907 6.08116 -89.1553
rradius 31.8654
rwrist 17.0477
rhand -0.610326 -52.6267
rfingers 7.12502
rthumb 25.0057 -81.0101
lclavicle 2.21987e-014 9.69075e-015
lhumerus -30.5629 -4.8986 86.4804
lradius 47.6124
lwrist -1.98818
lhand -9.61992 -34.2425
lfingers 7.12502
lthumb 16.3496 -4.91168
rfemur -28.7393 28.2882 9.33234
rtibia 19.5128
rfoot -31.6767 -44.3647
rtoes 18.2821
lfemur 14.4477 -14.641 -33.4801
ltibia 10.267
lfoot -17.9438 15.3404
ltoes -25.411
450
root 10.7627 15.3475 -17.9545 0.512877 5.47471 3.56324
lowerback 7.85751 -0.350689 -4.94495
upperback -3.50509 -1.05923 -0.453787
thorax -8.05193 -0.269499 2.45509
lowerneck -7.93944 -3.50571 -6.30956
upperneck 15.3683 -4.68939 4.97948
head 6.23007 -2.26355 2.25423
rclavicle -1.35111e-015 -7.55382e-015
rhumerus -46.9086 6.02343 -89.0886
rradius 31.7098
rwrist 16.4578
rhand -1.51391 -52.5218
rfingers 7.12502
rthumb 24.1395 -81.023
lclavicle -1.35111e-015 -7.55382e-015
lhumerus -30.9387 -4.78278 86.7199
lradius 47.7104
lwrist -1.87214
lhand -9.65027 -34.5124
lfingers 7.12502
lthumb 16.3204 -5.17917
rfemur -28.887 29.8822 8.50767
rtibia 19.0476
rfoot -34.1453 -44.6849
rtoes 21.8062
lfemur 14.855 -14.4259 -33.4596
ltibia 10.3684
lfoot -17.7111 15.0081
ltoes -25.2502
